<svg width="30" height="30" viewBox="0 0 30 30" fill="none" xmlns="http://www.w3.org/2000/svg">
<path d="M22.0312 5.75684C22.9199 5.93262 23.7354 6.24512 24.4775 6.69434C25.2197 7.14355 25.8594 7.69043 26.3965 8.33496C26.9336 8.97949 27.3584 9.71191 27.6709 10.5322C27.9834 11.3525 28.1348 12.2168 28.125 13.125C28.125 14.1113 27.9443 15.0439 27.583 15.9229C27.2217 16.8018 26.7187 17.583 26.0742 18.2666C25.4297 18.9502 24.6826 19.4971 23.833 19.9072C22.9834 20.3174 22.0605 20.5518 21.0645 20.6104C20.3711 21.6455 19.502 22.4902 18.457 23.1445C17.4121 23.7988 16.2598 24.1943 15 24.3311V30H13.125V24.3311C11.875 24.1943 10.7275 23.7988 9.68262 23.1445C8.63769 22.4902 7.76367 21.6455 7.06055 20.6104C6.07422 20.5615 5.15137 20.332 4.29199 19.9219C3.43262 19.5117 2.68555 18.9648 2.05078 18.2812C1.41602 17.5977 0.917969 16.8164 0.556641 15.9375C0.195312 15.0586 0.00976562 14.1211 0 13.125C0 12.2168 0.151367 11.3574 0.454102 10.5469C0.756836 9.73633 1.17676 9.00391 1.71387 8.34961C2.25098 7.69531 2.89551 7.14355 3.64746 6.69434C4.39941 6.24512 5.21484 5.93262 6.09375 5.75684C6.37695 4.89746 6.78223 4.11621 7.30957 3.41309C7.83691 2.70996 8.44727 2.10449 9.14062 1.59668C9.83398 1.08887 10.6006 0.698242 11.4404 0.424805C12.2803 0.151367 13.1543 0.00976563 14.0625 0C14.9707 0 15.8398 0.136719 16.6699 0.410156C17.5 0.683594 18.2666 1.0791 18.9697 1.59668C19.6729 2.11426 20.2881 2.71973 20.8154 3.41309C21.3428 4.10645 21.748 4.8877 22.0312 5.75684ZM20.625 18.75C21.3965 18.75 22.124 18.6035 22.8076 18.3105C23.4912 18.0176 24.0869 17.6172 24.5947 17.1094C25.1025 16.6016 25.5078 16.0059 25.8105 15.3223C26.1133 14.6387 26.2598 13.9062 26.25 13.125C26.25 12.3535 26.1035 11.626 25.8105 10.9424C25.5176 10.2588 25.1172 9.66309 24.6094 9.15527C24.1016 8.64746 23.501 8.24219 22.8076 7.93945C22.1143 7.63672 21.3867 7.49023 20.625 7.5H20.5811C20.5713 7.5 20.5566 7.50488 20.5371 7.51465C20.4199 6.71387 20.1709 5.97168 19.79 5.28809C19.4092 4.60449 18.9307 4.00391 18.3545 3.48633C17.7783 2.96875 17.124 2.57324 16.3916 2.2998C15.6592 2.02637 14.8828 1.88477 14.0625 1.875C13.2422 1.875 12.4658 2.0166 11.7334 2.2998C11.001 2.58301 10.3467 2.97852 9.77051 3.48633C9.19434 3.99414 8.71582 4.58984 8.33496 5.27344C7.9541 5.95703 7.70508 6.7041 7.58789 7.51465H7.54394C7.53418 7.51465 7.51953 7.50977 7.5 7.5C6.71875 7.50977 5.98633 7.66113 5.30273 7.9541C4.61914 8.24707 4.02344 8.64258 3.51562 9.14062C3.00781 9.63867 2.60742 10.2344 2.31445 10.9277C2.02148 11.6211 1.875 12.3535 1.875 13.125C1.875 13.9062 2.02148 14.6338 2.31445 15.3076C2.60742 15.9814 3.00781 16.5771 3.51562 17.0947C4.02344 17.6123 4.61914 18.0176 5.30273 18.3105C5.98633 18.6035 6.71875 18.75 7.5 18.75H8.15918C8.39355 19.248 8.68164 19.7021 9.02344 20.1123C9.36523 20.5225 9.75098 20.8887 10.1807 21.2109C10.6104 21.5332 11.0693 21.7969 11.5576 22.002C12.0459 22.207 12.5684 22.3486 13.125 22.4268V20.5371C12.5781 20.4199 12.0752 20.2197 11.6162 19.9365C11.1572 19.6533 10.7617 19.3115 10.4297 18.9111C10.0977 18.5107 9.83887 18.0518 9.65332 17.5342C9.46777 17.0166 9.375 16.4844 9.375 15.9375H11.25C11.25 16.2305 11.2939 16.5137 11.3818 16.7871C11.4697 17.0605 11.5967 17.3193 11.7627 17.5635C11.9287 17.8076 12.124 18.0127 12.3486 18.1787C12.5732 18.3447 12.832 18.4814 13.125 18.5889V13.125H15V18.5889C15.2832 18.4912 15.5371 18.3545 15.7617 18.1787C15.9863 18.0029 16.1865 17.7979 16.3623 17.5635C16.5381 17.3291 16.665 17.0752 16.7432 16.8018C16.8213 16.5283 16.8652 16.2402 16.875 15.9375H18.75C18.75 16.4941 18.6572 17.0264 18.4717 17.5342C18.2861 18.042 18.0273 18.4961 17.6953 18.8965C17.3633 19.2969 16.9678 19.6436 16.5088 19.9365C16.0498 20.2295 15.5469 20.4297 15 20.5371V22.4268C15.5371 22.3486 16.0547 22.207 16.5527 22.002C17.0508 21.7969 17.5146 21.5381 17.9443 21.2256C18.374 20.9131 18.7598 20.5469 19.1016 20.127C19.4434 19.707 19.7314 19.248 19.9658 18.75H20.625Z" fill="white"/>
</svg>
